HIERARCHY
ROOT hip
{
  OFFSET 0 0 0
  CHANNELS 6 Xposition Yposition Zposition Zrotation Yrotation Xrotation
  JOINT abdomen
  {
    OFFSET 0 20.6881 -0.73152
    CHANNELS 3 Zrotation Xrotation Yrotation
    JOINT chest
    {
      OFFSET 0 11.7043 -0.48768
      CHANNELS 3 Zrotation Xrotation Yrotation
      JOINT neck
      {
        OFFSET 0 22.1894 -2.19456
        CHANNELS 3 Zrotation Xrotation Yrotation
        JOINT head
        {
          OFFSET -0.24384 7.07133 1.2192
          CHANNELS 3 Zrotation Xrotation Yrotation
          JOINT leftEye
          {
            OFFSET 4.14528 8.04674 8.04672
            CHANNELS 3 Zrotation Xrotation Yrotation
            End Site
            {
              OFFSET 1 0 0
            }
          }
          JOINT rightEye
          {
            OFFSET -3.6576 8.04674 8.04672
            CHANNELS 3 Zrotation Xrotation Yrotation
            End Site
            {
              OFFSET 1 0 0
            }
          }
        }
      }
      JOINT rCollar
      {
        OFFSET -2.68224 19.2634 -4.8768
        CHANNELS 3 Zrotation Xrotation Yrotation
        JOINT rShldr
        {
          OFFSET -8.77824 -1.95073 1.46304
          CHANNELS 3 Zrotation Xrotation Yrotation
          JOINT rForeArm
          {
            OFFSET -28.1742 -1.7115 0.48768
            CHANNELS 3 Zrotation Xrotation Yrotation
            JOINT rHand
            {
              OFFSET -22.5879 0.773209 7.07136
              CHANNELS 3 Zrotation Xrotation Yrotation
              JOINT rThumb1
              {
                OFFSET -1.2192 -0.487915 3.41376
                CHANNELS 3 Zrotation Xrotation Yrotation
                JOINT rThumb2
                {
                  OFFSET -3.37035 -0.52449 3.41376
                  CHANNELS 3 Zrotation Xrotation Yrotation
                  End Site
                  {
                    OFFSET -1.78271 -1.18214 1.43049
                  }
                }
              }
              JOINT rIndex1
              {
                OFFSET -7.75947 0.938293 5.60832
                CHANNELS 3 Zrotation Xrotation Yrotation
                JOINT rIndex2
                {
                  OFFSET -2.54057 -0.884171 1.56538
                  CHANNELS 3 Zrotation Xrotation Yrotation
                  End Site
                  {
                    OFFSET -1.62519 -0.234802 1.16502
                  }
                }
              }
              JOINT rMid1
              {
                OFFSET -8.24714 1.18213 3.41376
                CHANNELS 3 Zrotation Xrotation Yrotation
                JOINT rMid2
                {
                  OFFSET -3.10165 -0.590103 1.0647
                  CHANNELS 3 Zrotation Xrotation Yrotation
                  End Site
                  {
                    OFFSET -2.48547 -0.328903 0.83742
                  }
                }
              }
              JOINT rRing1
              {
                OFFSET -8.82822 0.546677 1.51678
                CHANNELS 3 Zrotation Xrotation Yrotation
                JOINT rRing2
                {
                  OFFSET -2.60934 -0.819778 -0.0198488
                  CHANNELS 3 Zrotation Xrotation Yrotation
                  End Site
                  {
                    OFFSET -2.33842 -0.294052 0.168128
                  }
                }
              }
              JOINT rPinky1
              {
                OFFSET -8.27202 -0.0477905 -0.4584
                CHANNELS 3 Zrotation Xrotation Yrotation
                JOINT rPinky2
                {
                  OFFSET -1.82734 -0.647385 -0.700984
                  CHANNELS 3 Zrotation Xrotation Yrotation
                  End Site
                  {
                    OFFSET -1.69225 -0.51767 -0.607171
                  }
                }
              }
            }
          }
        }
      }
      JOINT lCollar
      {
        OFFSET 2.68224 19.2634 -4.8768
        CHANNELS 3 Zrotation Xrotation Yrotation
        JOINT lShldr
        {
          OFFSET 8.77824 -1.95073 1.46304
          CHANNELS 3 Zrotation Xrotation Yrotation
          JOINT lForeArm
          {
            OFFSET 28.1742 -1.7115 0.48768
            CHANNELS 3 Zrotation Xrotation Yrotation
            JOINT lHand
            {
              OFFSET 22.5879 0.773209 7.07136
              CHANNELS 3 Zrotation Xrotation Yrotation
              JOINT lThumb1
              {
                OFFSET 1.2192 -0.487915 3.41376
                CHANNELS 3 Zrotation Xrotation Yrotation
                JOINT lThumb2
                {
                  OFFSET 3.37035 -0.52449 3.41376
                  CHANNELS 3 Zrotation Xrotation Yrotation
                  End Site
                  {
                    OFFSET 1.78271 -1.18214 1.43049
                  }
                }
              }
              JOINT lIndex1
              {
                OFFSET 7.75947 0.938293 5.60832
                CHANNELS 3 Zrotation Xrotation Yrotation
                JOINT lIndex2
                {
                  OFFSET 2.54057 -0.884171 1.56538
                  CHANNELS 3 Zrotation Xrotation Yrotation
                  End Site
                  {
                    OFFSET 1.62519 -0.234802 1.16502
                  }
                }
              }
              JOINT lMid1
              {
                OFFSET 8.24714 1.18213 3.41376
                CHANNELS 3 Zrotation Xrotation Yrotation
                JOINT lMid2
                {
                  OFFSET 3.10165 -0.590103 1.0647
                  CHANNELS 3 Zrotation Xrotation Yrotation
                  End Site
                  {
                    OFFSET 2.48547 -0.328903 0.83742
                  }
                }
              }
              JOINT lRing1
              {
                OFFSET 8.82822 0.546677 1.51678
                CHANNELS 3 Zrotation Xrotation Yrotation
                JOINT lRing2
                {
                  OFFSET 2.60934 -0.819778 -0.0198488
                  CHANNELS 3 Zrotation Xrotation Yrotation
                  End Site
                  {
                    OFFSET 2.33842 -0.294052 0.168128
                  }
                }
              }
              JOINT lPinky1
              {
                OFFSET 8.27202 -0.0477905 -0.4584
                CHANNELS 3 Zrotation Xrotation Yrotation
                JOINT lPinky2
                {
                  OFFSET 1.82734 -0.647385 -0.700984
                  CHANNELS 3 Zrotation Xrotation Yrotation
                  End Site
                  {
                    OFFSET 1.69225 -0.51767 -0.607171
                  }
                }
              }
            }
          }
        }
      }
    }
  }
  JOINT rButtock
  {
    OFFSET -8.77824 4.35084 1.2192
    CHANNELS 3 Zrotation Xrotation Yrotation
    JOINT rThigh
    {
      OFFSET 0 -1.70687 -2.19456
      CHANNELS 3 Zrotation Xrotation Yrotation
      JOINT rShin
      {
        OFFSET 0 -36.8199 0.73152
        CHANNELS 3 Zrotation Xrotation Yrotation
        JOINT rFoot
        {
          OFFSET 0.73152 -45.1104 -5.12064
          CHANNELS 3 Zrotation Xrotation Yrotation
          End Site
          {
            OFFSET -1.1221 -3.69964 12.103
          }
        }
      }
    }
  }
  JOINT lButtock
  {
    OFFSET 8.77824 4.35084 1.2192
    CHANNELS 3 Zrotation Xrotation Yrotation
    JOINT lThigh
    {
      OFFSET 0 -1.70687 -2.19456
      CHANNELS 3 Zrotation Xrotation Yrotation
      JOINT lShin
      {
        OFFSET 0 -36.8199 0.73152
        CHANNELS 3 Zrotation Xrotation Yrotation
        JOINT lFoot
        {
          OFFSET -0.73152 -45.1104 -5.12064
          CHANNELS 3 Zrotation Xrotation Yrotation
          End Site
          {
            OFFSET 1.1221 -3.69964 12.103
          }
        }
      }
    }
  }
}
MOTION
Frames:	5
Frame Time:	0.03333
64.8893 59.1766 -20.8357 -167.924441 51.008183 -164.997241 0.395625 15.712543 167.09927 -4.325298 6.184252 -143.249485 1.333998 35.319388 -171.190953 20.142149 51.009817 132.969269 17.179142 6.850372 43.231033 9.402836 -3.352635 -39.176875 -2.431142 18.696573 -0.475237 -24.495378 2.937293 49.141785 -42.930951 -66.91426 29.615803 -1.681352 -8.771065 -8.71633 177.664431 -23.736774 85.166708 19.465601 -41.361129 19.920341 -9.899411 -6.076124 -9.053038 30.542296 7.744093 16.585146 18.051355 -22.002398 15.836065 -176.129169 41.107755 142.683236 -8.042169 0.310012 -7.492668 -155.551633 -10.372646 142.004717 -154.939983 54.413013 -161.522962 -14.805593 3.358718 14.319971 -6.520979 -25.51891 -7.71735 45.528574 -66.205979 125.008382 -159.556515 13.940112 54.001309 100.73404 80.885821 -88.553627 166.06556 18.444161 -86.794786 -123.639451 -48.257217 -97.070933 77.316417 54.663471 -63.124478 12.053811 -41.725905 28.11759 146.252913 20.099971 -131.803622 -23.608541 7.621857 -0.19503 171.716161 28.011767 179.062316 55.813458 25.783327 10.500951 109.021669 8.077151 168.842344 -95.261925 -9.318107 -21.387296 31.985859 2.657857 19.953431 -41.295511 -21.641801 -18.83393 44.405702 64.660131 50.061529 -38.074331 -8.09746 -124.6872 14.304425 -12.368027 8.402194 -16.907563 -54.470493 -0.0 -114.128952 85.625933 17.151843 81.702985 -58.418992 178.387891
69.5673 58.7035 -24.2315 -166.533256 55.682767 -164.482029 0.879045 19.026366 -0.0 -0.793543 -10.479168 22.208352 4.813518 15.497537 12.383565 -12.985512 -31.620603 -34.789097 7.938035 2.989097 41.216194 12.082583 -4.271738 -38.824628 -6.042694 38.388362 3.704787 49.263064 -38.675862 75.283849 -164.775534 10.867317 50.003877 -178.707828 -11.176704 139.849401 -72.476137 46.694589 44.150519 -6.1187 -19.87998 -10.639169 -176.784457 -61.160058 131.5708 -8.311851 66.270051 -8.524132 -9.025926 24.429621 16.983078 -97.405287 80.600364 70.367408 -150.026129 62.637168 162.419028 -24.751383 28.796855 3.518661 -27.604723 -43.161645 -11.141459 33.923525 29.214249 -16.275834 -1.617239 -18.820682 -9.035465 95.170291 -14.364578 -172.367392 174.346902 -8.277555 71.978133 8.822011 48.888885 -7.456122 -175.584326 -2.682033 -96.528907 45.441061 -61.128196 33.483038 42.362362 43.498311 -33.316979 171.023679 26.092285 -108.883942 163.135697 -8.060228 -135.961946 -4.619278 21.990467 -16.85972 23.481226 3.799272 9.746711 118.221155 -29.874532 -133.890151 46.203409 -68.247145 82.19638 -75.674386 -46.006485 -95.850942 -132.072733 75.099008 -32.574365 151.772768 42.928749 180.0 21.499743 -67.699161 -107.889396 -172.390244 -71.830193 104.654853 -81.610182 70.154917 -78.446578 159.659325 14.112433 -123.333341 -63.826223 -51.152948 84.540793 103.281856 5.821835 -43.339663
73.7892 58.4139 -27.801199999999998 -161.270128 61.55288 -160.2309 1.430734 13.025133 173.676341 2.194602 5.891024 -156.5625 -2.451065 29.477032 -116.304795 37.224338 25.260317 101.970866 -12.789648 1.826104 -16.186232 16.961806 -2.81506 -18.714668 -154.363872 -30.007418 175.645447 -91.966113 -38.765802 -89.257681 -131.278116 -8.225145 -48.680703 15.76873 -69.898819 2.481424 -4.346251 23.286052 -7.908258 -31.10429 -25.506444 -10.009445 -54.64412 51.619298 42.448253 -7.363956 14.649671 9.875318 10.17816 -26.229765 -11.610672 -15.465785 17.48285 26.15771 -143.65078 72.648086 144.97707 -7.888503 10.933368 24.021764 -80.781306 -45.862077 -77.237997 5.765687 -26.112462 -13.260915 -9.747222 -45.756656 -5.72737 99.055571 -15.166386 -178.468313 172.29173 -9.35748 92.485667 2.958834 42.74976 -3.351603 13.601587 0.104156 10.639847 43.087424 7.181852 -67.563157 1.707796 -0.236246 -2.386764 173.29676 -16.600502 -92.531989 3.319336 -7.418527 -7.700228 176.247101 -57.196214 -152.013958 15.015256 1.036761 8.310836 -45.33617 1.737807 -37.106882 45.146548 -59.280982 57.766804 5.086963 40.94373 -43.214639 -177.816035 81.4483 -0.0 172.630308 53.713732 9.115797 14.265178 63.43391 -33.721016 166.740251 -14.224638 21.262447 20.675986 -6.681254 17.76463 -27.295868 -58.964886 -120.458962 -71.83487 -11.191728 -104.647001 -39.799264 -21.422282 176.319823
77.5781 58.2758 -31.668400000000002 -153.219682 66.368895 -153.964776 0.561862 17.23529 -0.144122 -1.58477 -10.465783 10.002061 12.982119 24.021321 127.074558 -24.685367 22.660126 -114.099734 -23.310172 8.666574 -40.34181 15.376627 0.538602 3.988133 0.815942 -0.517493 -1.530119 68.471053 15.457206 23.062119 -91.964031 -44.853345 75.795753 178.106129 -54.2363 154.612458 -159.743573 -19.792985 106.005562 35.064399 -39.323106 -12.320827 -15.565759 40.6552 14.55002 -175.655531 -6.955502 122.29466 -9.849966 -29.249333 -20.500719 53.198079 -84.236019 -10.72131 -175.528231 -0.069653 179.39315 -99.607106 68.108972 81.84415 -22.520458 12.270963 -28.467058 99.916839 -69.15504 69.553723 118.114416 57.464054 -119.341085 -132.39669 4.162972 -168.760441 -105.011119 -13.536396 -58.92415 -170.902999 23.277311 -159.04454 -97.85803 -60.185547 -50.56122 27.187863 31.421664 -16.919454 4.419838 -5.789052 -4.439167 -116.898363 -49.137337 -56.020972 124.797981 48.143939 -112.710609 -149.623543 -75.701955 -122.681162 4.667595 5.315986 -0.429602 -51.015908 -55.890347 -36.115367 147.604015 16.453331 140.110687 9.498701 2.57093 23.720121 -144.747693 81.080407 -35.581538 171.204067 62.447939 9.900039 41.859402 59.909757 66.987594 -81.02929 -15.46605 -147.196781 -151.57424 76.10621 -19.638923 -175.232397 10.115884 122.019581 39.058649 -27.501062 -115.62726 56.234401 20.124201 -37.752652
80.7324 57.702200000000005 -36.0085 -142.625016 72.202254 -144.84239 -2.835574 16.736067 0.703928 2.356545 -10.474022 5.81147 8.617071 11.16357 55.054205 -14.954196 -9.451969 -36.814323 -26.925415 1.874935 -7.820653 10.382938 1.087859 11.930371 -151.653142 8.156899 154.002235 67.579712 -64.425823 118.35806 14.716001 -52.492722 125.3593 -13.630109 -35.960938 -5.866358 -145.335001 -12.697291 101.409783 -56.176455 25.851275 44.888935 36.072029 -37.925002 -11.175443 4.70324 -6.572235 17.316758 -8.189496 -71.351146 -10.276451 -121.164051 -41.274424 -139.641646 -83.445379 42.077249 67.666646 -116.771441 -20.297814 147.667489 -66.313471 -29.800072 -20.571785 158.619414 61.973307 -40.154796 0.687361 -0.246824 2.208461 -99.386665 -18.361884 -78.80759 -177.407614 -14.914448 -109.910281 -122.076214 -53.769628 -120.299751 -178.529041 -14.992439 -91.827849 -91.287524 -79.608145 -52.150173 53.308393 31.304805 -40.792385 174.12976 -21.198071 -123.368805 129.625928 -80.699876 171.317502 -91.397307 -75.394159 -32.761281 139.27515 11.752668 -171.903824 -86.517516 86.54842 68.633264 49.919877 -45.209363 45.059527 -4.646368 -55.596633 34.593108 -3.034816 -5.400045 3.605323 -0.61518 -10.15731 -171.247903 -21.394729 -61.753193 110.878593 -26.230644 -29.89876 4.854113 0.271092 8.45553 -1.843018 51.970005 -61.588908 -30.054828 -37.104335 22.41468 135.666257 34.149409 -8.653578 -73.994219
